HIERARCHY
ROOT Hips
{
	OFFSET -3.958830 18.904000 13.208200
	CHANNELS 6 Xposition Yposition Zposition Zrotation Yrotation Xrotation 
	JOINT LHipJoint
	{
		OFFSET 0.000000 0.000000 0.000000
		CHANNELS 3 Zrotation Yrotation Xrotation
		JOINT LeftUpLeg
		{
			OFFSET 1.800000 -1.400000 0.085000
			CHANNELS 3 Zrotation Yrotation Xrotation
			JOINT LeftLeg
			{
				OFFSET 2.215000 -6.000000 0.000000
				CHANNELS 3 Zrotation Yrotation Xrotation
				JOINT LeftFoot
				{
					OFFSET 2.500000 -6.900000 0.000000
					CHANNELS 3 Zrotation Yrotation Xrotation
					JOINT LeftToeBase
					{
						OFFSET 0.200000 -0.500000 1.950000
						CHANNELS 3 Zrotation Yrotation Xrotation
						End Site
						{
							OFFSET 0.000000 0.000000 0.000000
						}
					}
				}
			}
		}
	}
	JOINT RHipJoint
	{
		OFFSET 0.000000 0.000000 0.000000
		CHANNELS 3 Zrotation Yrotation Xrotation
		JOINT RightUpLeg
		{
			OFFSET -1.800000 -1.400000 0.085000
			CHANNELS 3 Zrotation Yrotation Xrotation
			JOINT RightLeg
			{
				OFFSET -2.215000 -6.000000 0.000000
				CHANNELS 3 Zrotation Yrotation Xrotation
				JOINT RightFoot
				{
					OFFSET -2.500000 -6.900000 0.000000
					CHANNELS 3 Zrotation Yrotation Xrotation
					JOINT RightToeBase
					{
						OFFSET -0.200000 -0.500000 1.950000
						CHANNELS 3 Zrotation Yrotation Xrotation
						End Site
						{
							OFFSET 0.000000 0.000000 0.000000
						}
					}
				}
			}
		}
	}
	JOINT LowerBack
	{
		OFFSET 0.000000 0.000000 0.000000
		CHANNELS 3 Zrotation Yrotation Xrotation
		JOINT Spine
		{
			OFFSET -0.087000 1.940000 -0.288900
			CHANNELS 3 Zrotation Yrotation Xrotation
			JOINT Spine1
			{
				OFFSET 0.000000 1.950000 0.060000
				CHANNELS 3 Zrotation Yrotation Xrotation
				JOINT Neck
				{
					OFFSET 0.000000 0.000000 0.000000
					CHANNELS 3 Zrotation Yrotation Xrotation
					JOINT Neck1
					{
						OFFSET 0.000000 1.600000 0.340000
						CHANNELS 3 Zrotation Yrotation Xrotation
						JOINT Head
						{
							OFFSET 0.000000 1.667000 -0.240000
							CHANNELS 3 Zrotation Yrotation Xrotation
							End Site
							{
								OFFSET 0.000000 0.000000 0.000000
							}
						}
					}
				}
				JOINT LeftShoulder
				{
					OFFSET 0.000000 0.000000 0.000000
					CHANNELS 3 Zrotation Yrotation Xrotation
					JOINT LeftArm
					{
						OFFSET 2.700000 1.550000 -0.730000
						CHANNELS 3 Zrotation Yrotation Xrotation
						JOINT LeftForeArm
						{
							OFFSET 5.450000 0.000000 0.000000
							CHANNELS 3 Zrotation Yrotation Xrotation
							JOINT LeftHand
							{
								OFFSET 3.450000 0.000000 0.000000
								CHANNELS 3 Zrotation Yrotation Xrotation
								JOINT LeftHandIndex1
								{
									OFFSET 0.750000 0.000000 0.000000
									CHANNELS 3 Zrotation Yrotation Xrotation
									End Site
									{
										OFFSET 0.000000 0.000000 0.000000
									}
								}
							}
						}
					}
				}
				JOINT RightShoulder
				{
					OFFSET 0.000000 0.000000 0.000000
					CHANNELS 3 Zrotation Yrotation Xrotation
					JOINT RightArm
					{
						OFFSET -2.700000 1.550000 -0.730000
						CHANNELS 3 Zrotation Yrotation Xrotation
						JOINT RightForeArm
						{
							OFFSET -5.450000 0.000000 0.000000
							CHANNELS 3 Zrotation Yrotation Xrotation
							JOINT RightHand
							{
								OFFSET -3.450000 0.000000 0.000000
								CHANNELS 3 Zrotation Yrotation Xrotation
								JOINT RightHandIndex1
								{
									OFFSET -0.750000 0.000000 0.000000
									CHANNELS 3 Zrotation Yrotation Xrotation
									End Site
									{
										OFFSET 0.000000 0.000000 0.000000
									}
								}
							}
						}
					}
				}
			}
		}
	}
}
MOTION
Frames: 7
Frame Time: 0.016667
-1.567910 15.573090 -5.442730 0.691399 -11.186309 -6.883447 -15.971414 8.826342 7.254977 40.120797 10.575140 -41.238583 -56.404199 43.526137 38.174815 1.710267 13.391315 -0.000036 0.803160 0.444400 0.618530 18.466173 -5.760991 4.691851 -53.724484 12.089255 -14.064647 70.382839 -18.006739 10.383537 -2.268277 -8.599763 1.282855 0.084630 -0.383070 0.282550 -3.213639 -2.888135 -11.132623 29.822430 -4.232219 39.566256 -4.704793 6.200268 5.727455 8.751047 -10.060284 -19.602974 -24.039048 7.406419 57.341210 -2.328550 -7.158130 -42.594660 -35.942795 -20.334874 7.777613 -54.871939 14.505164 -11.226412 20.398329 -11.474901 -2.351259 -2.947782 2.752364 1.322910 -0.622870 0.686160 0.194470 19.624947 37.884827 15.514974 48.177416 14.001100 -11.002915 138.624922 56.573545 84.094226 2.352433 -1.049095 -0.019810 0.365690 -0.110520 -0.278050 
-1.566440 15.597680 -5.427590 1.077392 -11.218901 -7.914429 -15.971434 8.978672 7.171918 39.408869 10.289882 -40.461947 -54.576476 43.725389 39.624293 1.705054 13.518518 -0.040760 0.800330 0.434670 0.617860 18.429066 -5.863001 4.645113 -53.544912 12.337900 -13.461231 69.365001 -18.474097 11.251735 -2.265809 -8.654017 1.261321 0.090230 -0.381650 0.262580 -3.140059 -2.995995 -11.100471 30.501274 -3.769045 39.661523 -3.628183 6.427419 8.419090 9.279507 -10.292704 -21.266197 -25.511632 7.606030 57.295942 -2.012870 -7.885800 -43.063880 -37.410598 -23.590318 8.771935 -54.233483 13.234482 -10.601602 25.947761 -9.834438 -2.458187 -2.927550 2.806535 1.338390 -0.637130 0.680710 0.191530 20.693691 41.359372 17.244815 45.738520 14.067790 -13.227596 146.744034 58.183539 96.752694 2.256264 -0.903748 -0.039060 0.393250 -0.102170 -0.282080 
-1.560840 15.624170 -5.419190 1.673796 -11.171489 -8.953829 -15.962284 9.122186 7.063569 38.158477 9.832153 -39.980413 -52.037609 43.887884 41.657624 1.719599 13.710513 -0.094747 0.794720 0.430170 0.603850 18.397499 -5.981980 4.613666 -53.541435 12.663882 -13.008743 68.258050 -18.914291 12.203738 -2.263565 -8.718065 1.247588 0.093270 -0.366280 0.248350 -3.079842 -3.046186 -11.065823 30.825416 -3.218270 40.140809 -2.714503 6.695421 10.894817 9.616845 -10.351253 -22.644712 -26.250012 7.442165 56.766821 -1.006800 -8.427780 -43.918220 -37.274778 -26.217721 9.562610 -53.759059 11.612204 -10.035221 29.145321 -8.150300 -2.388554 -2.920895 2.836386 1.348840 -0.642220 0.674660 0.196610 20.461191 44.132534 18.610894 43.820070 14.994514 -15.177990 156.373294 59.630166 111.953603 2.106922 -0.844732 -0.053920 0.422730 -0.094130 -0.277540 
-1.553440 15.660660 -5.425280 2.547431 -11.435337 -10.013342 -15.960850 9.309533 6.897383 36.332473 9.277860 -39.449400 -48.775264 43.843628 44.092254 1.776101 13.941737 -0.149932 0.798170 0.442590 0.585990 18.350229 -6.106226 4.609034 -53.683010 13.078377 -13.043197 66.808975 -19.340544 13.447877 -2.266179 -8.795365 1.224297 0.095380 -0.350740 0.248320 -2.984630 -3.110292 -11.029673 30.636123 -2.386559 41.103236 -1.779099 7.132117 13.639368 10.064016 -10.495787 -24.233682 -27.095132 7.190637 55.999388 0.242370 -9.056120 -44.542700 -35.951787 -28.524163 10.286465 -53.707726 10.059556 -10.437741 32.626401 -9.035609 -3.181461 -2.879773 2.886884 1.343960 -0.648690 0.680490 0.219020 18.939689 47.015162 20.030232 41.504000 16.415254 -17.056615 169.262791 60.418790 130.572161 1.933055 -0.944805 -0.048030 0.436140 -0.104560 -0.254190 
-1.526020 15.700810 -5.424150 2.749784 -11.469735 -10.786988 -15.931895 9.451657 6.775037 34.681301 8.535854 -39.340418 -44.817203 43.617347 47.220439 1.824929 14.258166 -0.233336 0.786800 0.430130 0.564610 18.330979 -6.244772 4.566120 -53.231805 13.362052 -12.828652 65.197347 -19.644263 14.534925 -2.248804 -8.855891 1.210937 0.087070 -0.335260 0.246710 -2.973818 -3.101305 -10.953155 31.427411 -2.232822 42.026626 -1.756191 7.502340 15.324804 10.514568 -10.581411 -24.822219 -27.244188 6.578862 54.569393 1.081780 -9.443990 -45.533660 -35.004494 -28.996585 10.343266 -52.491792 9.108785 -11.050518 36.167455 -11.541898 -4.611888 -2.860682 2.917843 1.339290 -0.645850 0.666820 0.227110 17.350570 47.965450 20.643067 39.839796 18.012938 -17.632999 -176.612251 59.893859 150.131815 1.795763 -1.154962 -0.052390 0.436990 -0.102050 -0.246620 
-1.505110 15.754400 -5.432020 3.197866 -11.220895 -11.934327 -15.927340 9.712635 6.601193 32.519956 7.419264 -39.147045 -39.828543 42.847802 51.112473 1.863668 14.672556 -0.348784 0.744750 0.386050 0.533190 18.270589 -6.374821 4.493657 -52.540967 13.634423 -12.168277 63.167077 -19.927075 15.820641 -2.222725 -8.915324 1.194181 0.065780 -0.308440 0.239280 -2.856985 -3.298558 -10.858169 31.419970 -1.970772 43.840192 -1.837758 8.060064 16.561153 11.103825 -10.575346 -25.243929 -27.190207 5.925249 53.487089 1.805570 -9.731480 -47.050630 -34.208286 -28.932839 10.220031 -50.987082 8.736243 -12.679661 40.893461 -16.942963 -7.677513 -2.846305 2.892742 1.348010 -0.639370 0.650310 0.218320 15.554429 48.602069 21.019043 37.992205 19.552867 -17.703711 -163.283125 57.561976 168.441961 1.759538 -1.298536 -0.077470 0.456780 -0.075230 -0.247360 
-1.485950 15.825670 -5.447230 3.763118 -11.129120 -13.361703 -15.957002 10.136692 6.324565 30.064740 6.309654 -38.389860 -34.362494 41.267712 54.913125 1.898515 15.004569 -0.448012 0.716560 0.355630 0.514360 18.163799 -6.472228 4.403047 -51.461607 13.992556 -11.223351 60.489780 -19.883387 17.247331 -2.191743 -8.952429 1.175938 0.042000 -0.304470 0.238090 -2.624161 -3.787471 -10.724422 30.507755 -1.810423 46.747556 -1.913556 8.589985 17.445714 11.715273 -10.625595 -25.688660 -27.528064 5.524496 51.987013 2.607610 -9.798940 -49.051330 -32.535358 -28.912395 10.279819 -49.259961 8.752268 -13.712536 43.277222 -20.755618 -9.968037 -2.815809 2.883138 1.354810 -0.647600 0.646330 0.209830 12.890375 49.456779 21.058117 35.896350 21.435717 -17.875136 -151.713017 53.425564 -173.801590 1.886455 -1.295379 -0.083570 0.454920 -0.063300 -0.245940 
